<svg width="38" height="25" viewBox="0 0 38 25" fill="none" xmlns="http://www.w3.org/2000/svg">
<path d="M23.97 4.35559H13.9988V20.6416H23.97V4.35559Z" fill="#FF5F00"/>
<path d="M15.0259 12.5C15.0247 10.9318 15.3801 9.38383 16.0655 7.97331C16.7508 6.56279 17.748 5.32664 18.9816 4.35841C17.4537 3.15767 15.6188 2.411 13.6867 2.20374C11.7545 1.99647 9.80305 2.33699 8.05527 3.18635C6.30749 4.03572 4.83392 5.35967 3.80299 7.00689C2.77205 8.65412 2.22534 10.5582 2.22534 12.5014C2.22534 14.4446 2.77205 16.3487 3.80299 17.9959C4.83392 19.6431 6.30749 20.9671 8.05527 21.8164C9.80305 22.6658 11.7545 23.0063 13.6867 22.799C15.6188 22.5918 17.4537 21.8451 18.9816 20.6444C17.7476 19.6758 16.7502 18.4392 16.0648 17.0282C15.3795 15.6171 15.0242 14.0686 15.0259 12.5V12.5Z" fill="#EB001B"/>
<path d="M34.7497 18.9183V18.5845H34.8935V18.5155H34.5511V18.5845H34.6864V18.9183H34.7497ZM35.4142 18.9183V18.5155H35.3106L35.1898 18.8032L35.069 18.5155H34.9654V18.9183H35.0402V18.6133L35.1524 18.8751H35.2301L35.3423 18.6133V18.9183H35.4142Z" fill="#F79E1B"/>
<path d="M35.7393 12.5C35.7393 14.4434 35.1925 16.3475 34.1613 17.9948C33.1302 19.6421 31.6564 20.966 29.9084 21.8153C28.1604 22.6645 26.2087 23.0048 24.2765 22.7972C22.3442 22.5897 20.5093 21.8427 18.9816 20.6415C20.2147 19.6724 21.2116 18.436 21.8971 17.0254C22.5826 15.6148 22.9388 14.0669 22.9388 12.4986C22.9388 10.9302 22.5826 9.38235 21.8971 7.97176C21.2116 6.56116 20.2147 5.32467 18.9816 4.35558C20.5093 3.15446 22.3442 2.40743 24.2765 2.19987C26.2087 1.99231 28.1604 2.3326 29.9084 3.18185C31.6564 4.03109 33.1302 5.35502 34.1613 7.0023C35.1925 8.64958 35.7393 10.5537 35.7393 12.4971V12.5Z" fill="#F79E1B"/>
</svg>
